<mxfile host="65bd71144e">
    <diagram id="SW4DfvEqGbZ3StJW-6-M" name="Page-1">
        <mxGraphModel dx="-278" dy="436" grid="1" gridSize="10" guides="1" tooltips="1" connect="1" arrows="1" fold="1" page="1" pageScale="1" pageWidth="1169" pageHeight="827" math="0" shadow="0">
            <root>
                <mxCell id="0"/>
                <mxCell id="1" parent="0"/>
                <mxCell id="IJb-e8eg-xS6ZChyu8Ve-141" style="edgeStyle=orthogonalEdgeStyle;rounded=0;orthogonalLoop=1;jettySize=auto;html=1;startArrow=classic;startFill=1;strokeWidth=1;entryX=0;entryY=0.5;entryDx=0;entryDy=0;exitX=1;exitY=0.5;exitDx=0;exitDy=0;" parent="1" source="0ASeBLusxYy_lWqm8Vvi-7" target="IJb-e8eg-xS6ZChyu8Ve-163" edge="1">
                    <mxGeometry relative="1" as="geometry">
                        <mxPoint x="1430.78" y="506" as="targetPoint"/>
                        <mxPoint x="1390" y="506" as="sourcePoint"/>
                    </mxGeometry>
                </mxCell>
                <mxCell id="0ASeBLusxYy_lWqm8Vvi-42" style="edgeStyle=orthogonalEdgeStyle;rounded=0;orthogonalLoop=1;jettySize=auto;html=1;exitX=1;exitY=0.5;exitDx=0;exitDy=0;entryX=0;entryY=0.5;entryDx=0;entryDy=0;startArrow=classic;startFill=1;endArrow=classic;endFill=1;strokeWidth=1;fillColor=#d5e8d4;strokeColor=#82b366;entryPerimeter=0;" parent="1" source="IJb-e8eg-xS6ZChyu8Ve-150" target="0ASeBLusxYy_lWqm8Vvi-14" edge="1">
                    <mxGeometry relative="1" as="geometry">
                        <Array as="points">
                            <mxPoint x="1960" y="270"/>
                            <mxPoint x="1960" y="270"/>
                        </Array>
                    </mxGeometry>
                </mxCell>
                <mxCell id="IJb-e8eg-xS6ZChyu8Ve-150" value="API Шлюз&lt;br&gt;(Public API Gateway)" style="rounded=1;whiteSpace=wrap;html=1;" parent="1" vertex="1">
                    <mxGeometry x="1790" y="240" width="120" height="60" as="geometry"/>
                </mxCell>
                <mxCell id="0ASeBLusxYy_lWqm8Vvi-35" style="edgeStyle=orthogonalEdgeStyle;rounded=0;orthogonalLoop=1;jettySize=auto;html=1;exitX=1;exitY=0.5;exitDx=0;exitDy=0;startArrow=classic;startFill=1;strokeWidth=1;endArrow=classic;endFill=1;entryX=0;entryY=0.5;entryDx=0;entryDy=0;" parent="1" source="IJb-e8eg-xS6ZChyu8Ve-155" target="0ASeBLusxYy_lWqm8Vvi-1" edge="1">
                    <mxGeometry relative="1" as="geometry">
                        <mxPoint x="1590" y="270" as="targetPoint"/>
                        <Array as="points">
                            <mxPoint x="1550" y="320"/>
                            <mxPoint x="1550" y="270"/>
                        </Array>
                    </mxGeometry>
                </mxCell>
                <mxCell id="IJb-e8eg-xS6ZChyu8Ve-155" value="Веб-клиент&lt;br&gt;(Устройство пользователя)" style="rounded=1;whiteSpace=wrap;html=1;" parent="1" vertex="1">
                    <mxGeometry x="1360" y="290" width="120" height="60" as="geometry"/>
                </mxCell>
                <mxCell id="0ASeBLusxYy_lWqm8Vvi-36" style="edgeStyle=orthogonalEdgeStyle;rounded=0;orthogonalLoop=1;jettySize=auto;html=1;exitX=1;exitY=0.5;exitDx=0;exitDy=0;startArrow=classic;startFill=1;endArrow=classic;endFill=1;strokeWidth=1;entryX=0;entryY=0.25;entryDx=0;entryDy=0;" parent="1" source="IJb-e8eg-xS6ZChyu8Ve-157" target="0ASeBLusxYy_lWqm8Vvi-1" edge="1">
                    <mxGeometry relative="1" as="geometry">
                        <mxPoint x="1560" y="270" as="targetPoint"/>
                    </mxGeometry>
                </mxCell>
                <mxCell id="IJb-e8eg-xS6ZChyu8Ve-157" value="Мобильное приложение&lt;br&gt;(Устройство пользователя)" style="rounded=1;whiteSpace=wrap;html=1;" parent="1" vertex="1">
                    <mxGeometry x="1360" y="200" width="120" height="60" as="geometry"/>
                </mxCell>
                <mxCell id="0ASeBLusxYy_lWqm8Vvi-53" style="edgeStyle=orthogonalEdgeStyle;rounded=0;orthogonalLoop=1;jettySize=auto;html=1;exitX=0.5;exitY=0;exitDx=0;exitDy=0;entryX=0;entryY=0.75;entryDx=0;entryDy=0;fontSize=12;fontColor=#000000;startArrow=classic;startFill=1;endArrow=classic;endFill=1;strokeWidth=1;" parent="1" source="IJb-e8eg-xS6ZChyu8Ve-163" target="0ASeBLusxYy_lWqm8Vvi-1" edge="1">
                    <mxGeometry relative="1" as="geometry">
                        <Array as="points">
                            <mxPoint x="1560" y="285"/>
                        </Array>
                    </mxGeometry>
                </mxCell>
                <mxCell id="IJb-e8eg-xS6ZChyu8Ve-163" value="Консольное приложение&lt;br&gt;(C++, OpenCV)" style="rounded=1;whiteSpace=wrap;html=1;" parent="1" vertex="1">
                    <mxGeometry x="1500.0000000000002" y="476" width="120" height="60" as="geometry"/>
                </mxCell>
                <mxCell id="0ASeBLusxYy_lWqm8Vvi-33" style="edgeStyle=orthogonalEdgeStyle;rounded=0;orthogonalLoop=1;jettySize=auto;html=1;exitX=1;exitY=0.5;exitDx=0;exitDy=0;startArrow=classic;startFill=1;strokeWidth=1;" parent="1" source="0ASeBLusxYy_lWqm8Vvi-1" target="IJb-e8eg-xS6ZChyu8Ve-150" edge="1">
                    <mxGeometry relative="1" as="geometry"/>
                </mxCell>
                <mxCell id="0ASeBLusxYy_lWqm8Vvi-1" value="Обратное прокси&lt;br&gt;(NGINX)" style="rounded=1;whiteSpace=wrap;html=1;" parent="1" vertex="1">
                    <mxGeometry x="1620" y="240" width="120" height="60" as="geometry"/>
                </mxCell>
                <mxCell id="0ASeBLusxYy_lWqm8Vvi-7" value="Считыватель с &lt;br&gt;веб-камерой" style="rounded=1;whiteSpace=wrap;html=1;" parent="1" vertex="1">
                    <mxGeometry x="1320.0000000000002" y="476" width="120" height="60" as="geometry"/>
                </mxCell>
                <mxCell id="0ASeBLusxYy_lWqm8Vvi-14" value="API (монолит)&lt;br&gt;(Docker-контейнер)&lt;br&gt;Golang" style="rounded=1;whiteSpace=wrap;html=1;" parent="1" vertex="1">
                    <mxGeometry x="1990" y="240" width="120" height="60" as="geometry"/>
                </mxCell>
                <mxCell id="0ASeBLusxYy_lWqm8Vvi-30" value="" style="aspect=fixed;html=1;points=[];align=center;image;fontSize=12;image=img/lib/azure2/databases/Azure_Database_PostgreSQL_Server.svg;" parent="1" vertex="1">
                    <mxGeometry x="2218.44" y="223" width="70.5" height="94" as="geometry"/>
                </mxCell>
                <mxCell id="-5wnUk8HzMggQEpB9TKb-9" value="" style="edgeStyle=orthogonalEdgeStyle;rounded=0;orthogonalLoop=1;jettySize=auto;html=1;endArrow=classic;endFill=1;startArrow=classic;startFill=1;entryX=1;entryY=0.25;entryDx=0;entryDy=0;" parent="1" source="0ASeBLusxYy_lWqm8Vvi-31" target="0ASeBLusxYy_lWqm8Vvi-14" edge="1">
                    <mxGeometry relative="1" as="geometry">
                        <mxPoint x="2110" y="135" as="targetPoint"/>
                    </mxGeometry>
                </mxCell>
                <mxCell id="0ASeBLusxYy_lWqm8Vvi-31" value="" style="sketch=0;aspect=fixed;html=1;points=[];align=center;image;fontSize=12;image=img/lib/mscae/Cache_Redis_Product.svg;" parent="1" vertex="1">
                    <mxGeometry x="2216.32" y="104.5" width="72.62" height="61" as="geometry"/>
                </mxCell>
                <mxCell id="3" value="&lt;font color=&quot;#000000&quot; style=&quot;font-size: 12px&quot;&gt;СУБД&lt;br&gt;PostgreSQL&lt;br&gt;&lt;/font&gt;" style="text;html=1;strokeColor=none;fillColor=none;align=center;verticalAlign=middle;whiteSpace=wrap;rounded=0;fontSize=14;fontColor=#B9E0A5;" parent="1" vertex="1">
                    <mxGeometry x="2198.69" y="334" width="110" height="30" as="geometry"/>
                </mxCell>
                <mxCell id="4" value="&lt;font color=&quot;#000000&quot; style=&quot;font-size: 12px&quot;&gt;СУБД&lt;br&gt;Redis&lt;br&gt;&lt;/font&gt;" style="text;html=1;strokeColor=none;fillColor=none;align=center;verticalAlign=middle;whiteSpace=wrap;rounded=0;fontSize=14;fontColor=#B9E0A5;" parent="1" vertex="1">
                    <mxGeometry x="2198.69" y="165.5" width="110" height="30" as="geometry"/>
                </mxCell>
                <mxCell id="-5wnUk8HzMggQEpB9TKb-11" value="" style="edgeStyle=orthogonalEdgeStyle;rounded=0;orthogonalLoop=1;jettySize=auto;html=1;endArrow=classic;endFill=1;startArrow=classic;startFill=1;exitX=0.003;exitY=0.503;exitDx=0;exitDy=0;exitPerimeter=0;entryX=1;entryY=0.5;entryDx=0;entryDy=0;" parent="1" source="0ASeBLusxYy_lWqm8Vvi-30" target="0ASeBLusxYy_lWqm8Vvi-14" edge="1">
                    <mxGeometry relative="1" as="geometry">
                        <mxPoint x="2227.2415" y="279.23400000000004" as="sourcePoint"/>
                        <mxPoint x="2120" y="165" as="targetPoint"/>
                        <Array as="points">
                            <mxPoint x="2164" y="270"/>
                        </Array>
                    </mxGeometry>
                </mxCell>
            </root>
        </mxGraphModel>
    </diagram>
</mxfile>